<svg xmlns="http://www.w3.org/2000/svg" width="100%" height="100%" viewBox="0 0 113 32">
  <g fill="#ffffff" fill-rule="evenodd">
    <g transform="translate(32)">
      <path d="M23.742,21.131 C21.609,24.615 18.423,26.399 14.126,26.399 L7.501,26.399 L12.145,5.994 L18.772,5.994 C22.973,5.994 25.397,7.446 26.123,10.281 C27.178,7.975 28.542,6.018 30.225,4.429 C28.374,2.254 25.215,1.154 20.715,1.154 L7.673,1.154 L0.825,31.238 L13.867,31.238 C18.521,31.238 22.317,29.937 25.256,27.339 C24.277,25.622 23.772,23.546 23.742,21.131"/>
      <path d="M31.913,15.775 C33.429,9.113 37.799,5.786 45.022,5.786 C46.053,5.786 47.03,5.872 47.982,6.004 L47.022,0.998 C46.584,0.98 46.157,0.948 45.701,0.948 C34.903,0.948 28.377,5.888 26.129,15.775 C23.748,26.223 27.96,31.447 38.758,31.447 C42.056,31.447 45.112,30.956 47.929,29.976 L49.078,24.925 C46.227,26.05 43.295,26.611 40.279,26.611 C33.057,26.611 30.268,22.998 31.913,15.775"/>
      <polyline points="80.649 1.154 60.61 31.238 54.616 31.238 48.842 1.154 55.469 1.154 59.543 24.189 74.084 1.154 80.649 1.154"/>
    </g>
    <path fill-rule="nonzero" d="M16.7143212,28.6865376 C18.5089599,29.5696968 20.5076421,29.7575431 22.1463972,29.1145131 C23.1589543,28.8333743 24.3950788,27.8640486 25.8656644,26.1823722 L26.6268649,26.8307585 C24.5235038,29.3661204 22.6664489,30.8595301 20.9930335,31.3058685 C18.7464904,31.7876041 16.324392,31.3597044 14.290047,30.1606693 C11.3573887,28.4532914 9.06317376,25.5842564 7.56356555,22.0464997 C7.30159092,22.0677572 7.00339218,22.096084 6.50482576,22.1452234 C5.79347014,22.2153356 5.45631017,22.2457203 5.04641727,22.2726946 C3.63370304,22.365663 2.53068812,22.3026537 1.43999909,21.997708 C0.970896589,21.8319132 0.615624811,21.5157897 0.511872789,21.0482195 L0.5,20.939906 L0.5,20.7762419 L0.527370357,20.6130818 C0.719830953,20.0555768 1.08008063,19.6616204 1.74321679,19.1500781 C2.9522541,18.332859 3.67475824,17.9072465 4.54167439,17.5633283 L4.96872068,18.4652552 C4.08216971,18.9573764 3.64748815,19.2590973 3.26550867,19.7269088 C3.70327112,19.8601536 4.48548997,19.9191911 5.45389758,19.9050389 C5.89734741,19.8985584 6.38471706,19.874991 6.76927653,19.8485499 C5.930868,16.9698997 5.6478444,14.062083 5.98520278,11.2924471 C6.39851818,7.72525897 7.83562692,4.56771647 10.2346642,2.45072713 C11.7102566,1.24928582 13.5620327,0.548705637 15.448996,0.5 L15.9709694,0.500911615 C19.1410615,0.692602772 22.0969743,2.56581457 24.4547727,5.50852412 C25.5882082,7.06800226 26.0694252,7.82042265 26.4956737,8.84924631 L25.5957254,9.281737 C24.5912238,7.45687894 23.2760704,5.90394115 21.719714,4.75923697 C19.4527051,3.01871059 16.453729,2.4829343 14.1746744,3.61372963 C12.118117,4.48993283 10.5548045,6.49569475 9.68169426,9.07641819 C8.61226377,12.2360877 8.65207692,15.8484206 9.67850978,19.4306659 C13.6504806,18.729444 17.7194338,17.6293196 21.9909766,16.1431482 C22.398931,15.990341 22.5946058,15.9169503 22.80638,15.8370572 C25.5298166,14.8096249 27.0862719,14.0977445 28.5536804,13.1094105 C28.8236024,12.8904425 29.0179008,12.7051309 29.1820151,12.4972214 C28.9535915,12.3540107 28.6404345,12.2975033 28.1450052,12.2904729 C28.0643272,12.289328 27.9983666,12.2892249 27.850342,12.2896208 C27.5880573,12.2903223 27.4726861,12.2892082 27.327419,12.2821641 L27.3097659,11.2845071 C28.0688363,11.2207157 28.4086483,11.1966182 28.8164808,11.1827765 C29.8676305,11.1471009 30.7263886,11.2301131 31.4910746,11.4768712 C32.1547438,11.6273854 32.6508282,12.2575809 32.459158,12.9366943 L32.4181957,13.0379249 C32.0477162,13.7259843 31.5366363,14.1702982 30.5563882,14.8055272 C30.4969563,14.8440408 30.2841039,14.9810694 30.2396145,15.0098608 C30.191524,15.0410191 30.191524,15.0410191 30.1185472,15.0875655 C28.2114744,16.1768585 26.2148453,17.0326347 23.2344695,18.1196442 C18.9535996,19.613062 14.7257652,20.7613008 10.5429184,21.5441677 C12.4034293,25.6386607 13.8944981,27.292345 16.7143212,28.6865376 Z" transform="translate(.052 .003)"/>
  </g>
</svg>
